# xmcd CD database file
#
# Track frame offsets:
#	150
#	15800
#	28254
#	41873
#	58247
#	72321
#	85675
#	100253
#	114417
#	129952
#	144338
#	160888
#	173577
#	187608
#	201490
#	222816
#	237441
#	250781
#	263874
#	276871
#
# Disc length: 3877 seconds
#
# Revision: 4
# Processed by: cddbd v1.5.2PL0 Copyright (c) Steve Scherf et al.
# Submitted via: CDex 1.73
#
DISCID=140f2314
DTITLE=Various Artist - Jazz in the Charts - CD009 (1930)
DYEAR=1930
DGENRE=Jazz
TTITLE0=Stardust - Irving Mills and His Hotsy Totsy Gang
TTITLE1=Strike Up the Band - Red Nichols and His Five Pennies
TTITLE2=St. Louis Blues - Louis Armstrong and His Orchestra
TTITLE3=St. James Infirmary - King Oliver and His Orchestra
TTITLE4=Lazy Lou'siana Moon - Chick Bullock
TTITLE5=I Want to Be Happy - Red Nichols and His Five Pennies
TTITLE6=Get Happy - Frankie Trumbauer and His Orchestra
TTITLE7=Rollin' Down the River - Ben Pollack and His Orchestra
TTITLE8=If I Could Be with You (One Hour Tonight) - McKinney's Cotton Pickers
TTITLE9=I'm a Ding Dong Daddy (From Dumas) - Louis Armstrong and His Orchestra
TTITLE10=If I Could Be with You (One Hour Tonight) - Louis Armstrong and His Orchestra
TTITLE11=China Boy - Red Nichols and His Five Pennies
TTITLE12=Three Little Words - Duke Ellington and His Orchestra
TTITLE13=Embraceable You - Red Nichols and His Five Pennies
TTITLE14=It Had to Be You - Red Nichols and His Five Pennies
TTITLE15=Memories of You - Louis Armstrong and His Sebastian New Cotton Club Orchestra 
TTITLE16=Ring Dem Bells - Duke Ellington and His Orchestra
TTITLE17=St. Louis Blues - Cab Calloway and His Orchestra
TTITLE18=I Got Rhythm - Red Nichols and His Five Pennies
TTITLE19=Fine and Dandy - Dorsey Brothers Orchestra
EXTD=YEAR: 1930
EXTT0=
EXTT1=
EXTT2=
EXTT3=
EXTT4=
EXTT5=
EXTT6=
EXTT7=
EXTT8=
EXTT9=
EXTT10=
EXTT11=
EXTT12=
EXTT13=
EXTT14=
EXTT15=
EXTT16=
EXTT17=
EXTT18=
EXTT19=
PLAYORDER=
